<svg width="32" height="32" viewBox="0 0 32 32" fill="none" xmlns="http://www.w3.org/2000/svg">
<g clip-path="url(#clip0)">
<path d="M28 8H4C3.20435 8 2.44129 8.3088 1.87868 8.85848C1.31607 9.40816 1 10.1537 1 10.931V22.6552C1 23.4325 1.31607 24.178 1.87868 24.7277C2.44129 25.2774 3.20435 25.5862 4 25.5862H28C28.7956 25.5862 29.5587 25.2774 30.1213 24.7277C30.6839 24.178 31 23.4325 31 22.6552V10.931C31 10.1537 30.6839 9.40816 30.1213 8.85848C29.5587 8.3088 28.7956 8 28 8ZM29.5 13.788C28.3842 13.6296 27.3507 13.1233 26.5535 12.3443C25.7562 11.5654 25.2379 10.5556 25.0758 9.46552H28C28.3977 9.46596 28.7789 9.62051 29.0602 9.89525C29.3414 10.17 29.4995 10.5425 29.5 10.931V13.788ZM8.42437 24.1207C8.25626 22.642 7.57806 21.2633 6.50132 20.2114C5.42458 19.1594 4.01343 18.4968 2.5 18.3325V15.2537C4.01343 15.0895 5.42458 14.4268 6.50132 13.3749C7.57806 12.3229 8.25626 10.9442 8.42437 9.46552H23.5756C23.7437 10.9442 24.4219 12.3229 25.4987 13.3749C26.5754 14.4268 27.9866 15.0895 29.5 15.2537V18.3325C27.9866 18.4968 26.5754 19.1594 25.4987 20.2114C24.4219 21.2633 23.7437 22.642 23.5756 24.1207H8.42437ZM2.5 13.788V10.931C2.50046 10.5425 2.65864 10.17 2.93984 9.89525C3.22105 9.62051 3.60232 9.46596 4 9.46552H6.92419C6.76211 10.5556 6.24382 11.5654 5.44657 12.3443C4.64931 13.1233 3.61578 13.6296 2.5 13.788ZM25.0758 24.1207C25.2379 23.0306 25.7562 22.0208 26.5535 21.2419C27.3507 20.463 28.3842 19.9566 29.5 19.7982V22.6552C29.4995 23.0437 29.3414 23.4162 29.0602 23.691C28.7789 23.9657 28.3977 24.1202 28 24.1207H25.0758ZM4 24.1207C3.60232 24.1202 3.22105 23.9657 2.93984 23.691C2.65864 23.4162 2.50046 23.0437 2.5 22.6552V19.7982C3.61578 19.9566 4.64931 20.4629 5.44657 21.2419C6.24382 22.0208 6.76211 23.0306 6.92419 24.1207H4ZM16 12.3966C15.11 12.3966 14.24 12.6544 13.4999 13.1375C12.7599 13.6206 12.1831 14.3073 11.8425 15.1106C11.5019 15.914 11.4128 16.798 11.5865 17.6508C11.7601 18.5037 12.1887 19.2871 12.818 19.9019C13.4474 20.5168 14.2492 20.9355 15.1221 21.1052C15.995 21.2748 16.8998 21.1878 17.7221 20.855C18.5443 20.5222 19.2471 19.9587 19.7416 19.2357C20.2361 18.5127 20.5 17.6627 20.5 16.7931C20.5 15.6271 20.0259 14.5088 19.182 13.6843C18.3381 12.8598 17.1935 12.3966 16 12.3966ZM16 19.7241C15.4067 19.7241 14.8266 19.5522 14.3333 19.2302C13.8399 18.9081 13.4554 18.4503 13.2284 17.9148C13.0013 17.3792 12.9419 16.7899 13.0576 16.2213C13.1734 15.6527 13.4591 15.1305 13.8787 14.7205C14.2982 14.3106 14.8328 14.0315 15.4147 13.9184C15.9967 13.8053 16.5999 13.8633 17.1481 14.0852C17.6962 14.307 18.1648 14.6827 18.4944 15.1647C18.8241 15.6467 19 16.2134 19 16.7931C18.9991 17.5702 18.6827 18.3152 18.1203 18.8647C17.5579 19.4142 16.7954 19.7232 16 19.7241Z" fill="#FF582D"/>
</g>
<defs>
<clipPath id="clip0">
<rect width="30" height="17.5862" fill="white" transform="translate(1 8)"/>
</clipPath>
</defs>
</svg>
