<svg width="376" height="220" viewBox="0 0 376 220" fill="none" xmlns="http://www.w3.org/2000/svg">
<path fill-rule="evenodd" clip-rule="evenodd" d="M106.009 31.3408C106.034 31.3408 106.227 31.3342 106.284 31.3304C109.525 31.1466 111.564 26.9214 112.522 24.2987C112.728 23.7351 113.533 23.7578 113.71 24.3309C114.632 27.3125 116.809 32.3164 120.828 31.177C123.953 30.2914 125.152 23.9728 123.684 16.6816C121.135 4.02944 117.06 -0.129545 112.633 0.00305757C110.732 0.05894 108.284 2.5746 106.959 4.11373C106.458 4.69813 105.555 4.69813 105.053 4.11373C103.729 2.5746 101.281 0.05894 99.3804 0.00305757C94.9534 -0.129545 90.8779 4.02944 88.3292 16.6816C86.8611 23.9728 88.0595 30.2914 91.1846 31.177C95.2051 32.3164 97.3824 27.3106 98.3035 24.329C98.4802 23.7559 99.2845 23.7342 99.4905 24.2968C100.449 26.9195 102.488 31.1466 105.73 31.3304C105.786 31.3342 105.979 31.3408 106.004 31.3408H106.009Z" fill="white"/>
<path fill-rule="evenodd" clip-rule="evenodd" d="M185.306 4.63454e-06C180.082 -0.00550141 176.422 4.8958 174.49 10.7974C172.316 17.4358 169.442 29.2885 176.303 30.174C180.182 30.6751 182.814 27.2439 184.187 24.768C184.666 23.9063 185.947 23.9063 186.425 24.768C187.798 27.2439 190.43 30.6751 194.308 30.174C201.171 29.2885 198.296 17.4358 196.122 10.7974C194.191 4.8958 190.531 -0.00550141 185.306 4.63454e-06Z" fill="white"/>
<path fill-rule="evenodd" clip-rule="evenodd" d="M160.904 11.3067C161.009 5.21177 156.211 0.229493 149.998 0.00770529C145.576 -0.150447 141.474 2.13388 139.432 6.13261C137.629 9.66531 137.411 13.6762 137.748 16.6643C138.759 25.6172 142.97 31.4932 147.324 31.3397C150.421 31.2302 152.23 27.8173 151.515 23.2524C151.416 22.6282 151.813 22.0302 152.436 21.8711C157.248 20.6415 160.817 16.3891 160.904 11.3067Z" fill="white"/>
<path fill-rule="evenodd" clip-rule="evenodd" d="M37.7961 11.3067C37.9011 5.21177 33.103 0.229493 26.8892 0.00770529C22.4673 -0.150447 18.3651 2.13388 16.3231 6.13261C14.5208 9.66531 14.3021 13.6762 14.6401 16.6643C15.6511 25.6172 19.862 31.4932 24.2152 31.3397C27.3131 31.2302 29.1212 27.8173 28.4062 23.2524C28.3078 22.6282 28.705 22.0302 29.3274 21.8711C34.1398 20.6415 37.7083 16.3891 37.7961 11.3067Z" fill="white"/>
<path fill-rule="evenodd" clip-rule="evenodd" d="M61.089 4.63454e-06C56.2998 -0.00550141 52.9451 4.8958 51.1738 10.7974C49.1815 17.4358 46.5461 29.2885 52.8363 30.174C56.3919 30.6751 58.8045 27.2439 60.0634 24.768C60.5012 23.9063 61.6759 23.9063 62.1145 24.768C63.3726 27.2439 65.786 30.6751 69.3408 30.174C75.631 29.2885 72.9956 17.4358 71.0033 10.7974C69.2329 4.8958 65.8781 -0.00550141 61.089 4.63454e-06Z" fill="white"/>
<path fill-rule="evenodd" clip-rule="evenodd" d="M305.645 31.3408C305.669 31.3408 305.862 31.3342 305.919 31.3304C309.16 31.1466 311.2 26.9214 312.157 24.2987C312.363 23.7351 313.168 23.7578 313.346 24.3309C314.267 27.3125 316.444 32.3164 320.464 31.177C323.589 30.2914 324.787 23.9728 323.319 16.6816C320.77 4.02944 316.695 -0.129545 312.268 0.00305757C310.367 0.05894 307.919 2.5746 306.594 4.11373C306.093 4.69813 305.191 4.69813 304.688 4.11373C303.365 2.5746 300.917 0.05894 299.016 0.00305757C294.589 -0.129545 290.513 4.02944 287.964 16.6816C286.496 23.9728 287.695 30.2914 290.82 31.177C294.84 32.3164 297.018 27.3106 297.939 24.329C298.115 23.7559 298.92 23.7342 299.126 24.2968C300.084 26.9195 302.124 31.1466 305.365 31.3304C305.421 31.3342 305.614 31.3408 305.639 31.3408H305.645Z" fill="white"/>
<path fill-rule="evenodd" clip-rule="evenodd" d="M384.941 4.63454e-06C379.717 -0.00550141 376.057 4.8958 374.126 10.7974C371.951 17.4358 369.077 29.2885 375.938 30.174C379.817 30.6751 382.449 27.2439 383.823 24.768C384.301 23.9063 385.582 23.9063 386.06 24.768C387.433 27.2439 390.066 30.6751 393.944 30.174C400.806 29.2885 397.931 17.4358 395.757 10.7974C393.826 4.8958 390.166 -0.00550141 384.941 4.63454e-06Z" fill="white"/>
<path fill-rule="evenodd" clip-rule="evenodd" d="M360.54 11.3067C360.645 5.21177 355.847 0.229493 349.633 0.00770529C345.211 -0.150447 341.109 2.13388 339.067 6.13261C337.264 9.66531 337.046 13.6762 337.384 16.6643C338.395 25.6172 342.606 31.4932 346.959 31.3397C350.057 31.2302 351.865 27.8173 351.15 23.2524C351.051 22.6282 351.449 22.0302 352.071 21.8711C356.883 20.6415 360.452 16.3891 360.54 11.3067Z" fill="white"/>
<path fill-rule="evenodd" clip-rule="evenodd" d="M237.431 11.3067C237.536 5.21177 232.738 0.229493 226.524 0.00770529C222.102 -0.150447 218 2.13388 215.958 6.13261C214.156 9.66531 213.937 13.6762 214.275 16.6643C215.286 25.6172 219.497 31.4932 223.85 31.3397C226.948 31.2302 228.756 27.8173 228.041 23.2524C227.943 22.6282 228.34 22.0302 228.963 21.8711C233.775 20.6415 237.344 16.3891 237.431 11.3067Z" fill="white"/>
<path fill-rule="evenodd" clip-rule="evenodd" d="M260.724 4.63454e-06C255.935 -0.00550141 252.58 4.8958 250.809 10.7974C248.817 17.4358 246.181 29.2885 252.471 30.174C256.027 30.6751 258.44 27.2439 259.699 24.768C260.136 23.9063 261.311 23.9063 261.75 24.768C263.008 27.2439 265.421 30.6751 268.976 30.174C275.266 29.2885 272.631 17.4358 270.638 10.7974C268.868 4.8958 265.513 -0.00550141 260.724 4.63454e-06Z" fill="white"/>
<path fill-rule="evenodd" clip-rule="evenodd" d="M105.663 117.282C105.687 117.282 105.88 117.275 105.937 117.272C109.174 117.089 111.211 112.898 112.167 110.296C112.373 109.737 113.178 109.76 113.355 110.328C114.275 113.286 116.45 118.25 120.465 117.119C123.586 116.241 124.783 109.973 123.317 102.74C120.771 90.1894 116.7 86.0638 112.278 86.1953C110.38 86.2508 107.934 88.7463 106.611 90.2731C106.11 90.8528 105.209 90.8528 104.708 90.2731C103.385 88.7463 100.94 86.2508 99.0412 86.1953C94.6193 86.0638 90.5484 90.1894 88.0026 102.74C86.5362 109.973 87.7332 116.241 90.8547 117.119C94.8707 118.25 97.0456 113.284 97.9656 110.326C98.1421 109.758 98.9454 109.736 99.1513 110.294C100.108 112.896 102.146 117.089 105.384 117.272C105.44 117.275 105.632 117.282 105.657 117.282H105.663Z" fill="white"/>
<path fill-rule="evenodd" clip-rule="evenodd" d="M184.87 86.1923C179.651 86.1868 175.995 91.0489 174.066 96.9031C171.894 103.488 169.023 115.246 175.877 116.124C179.751 116.621 182.38 113.218 183.752 110.762C184.23 109.907 185.509 109.907 185.987 110.762C187.358 113.218 189.988 116.621 193.862 116.124C200.716 115.246 197.844 103.488 195.673 96.9031C193.744 91.0489 190.088 86.1868 184.87 86.1923Z" fill="white"/>
<path fill-rule="evenodd" clip-rule="evenodd" d="M160.496 97.4084C160.6 91.3623 155.808 86.42 149.601 86.2C145.184 86.0431 141.087 88.3091 139.047 92.2758C137.247 95.7801 137.028 99.7589 137.366 102.723C138.376 111.604 142.582 117.433 146.93 117.281C150.024 117.172 151.83 113.787 151.116 109.258C151.018 108.639 151.415 108.046 152.036 107.888C156.843 106.668 160.408 102.45 160.496 97.4084Z" fill="white"/>
<path fill-rule="evenodd" clip-rule="evenodd" d="M37.5269 97.4084C37.6318 91.3623 32.8392 86.42 26.6324 86.2C22.2155 86.0431 18.118 88.3091 16.0783 92.2758C14.278 95.7801 14.0596 99.7589 14.3972 102.723C15.407 111.604 19.6132 117.433 23.9615 117.281C27.0558 117.172 28.8619 113.787 28.1476 109.258C28.0494 108.639 28.4461 108.046 29.0678 107.888C33.8748 106.668 37.4392 102.45 37.5269 97.4084Z" fill="white"/>
<path fill-rule="evenodd" clip-rule="evenodd" d="M60.7934 86.1923C56.0097 86.1868 52.6587 91.0489 50.8895 96.9031C48.8994 103.488 46.267 115.246 52.5501 116.124C56.1017 116.621 58.5115 113.218 59.769 110.762C60.2063 109.907 61.3796 109.907 61.8178 110.762C63.0744 113.218 65.4851 116.621 69.0358 116.124C75.3189 115.246 72.6865 103.488 70.6964 96.9031C68.9281 91.0489 65.5771 86.1868 60.7934 86.1923Z" fill="white"/>
<path fill-rule="evenodd" clip-rule="evenodd" d="M305.071 117.282C305.096 117.282 305.288 117.275 305.345 117.272C308.583 117.089 310.62 112.898 311.576 110.296C311.782 109.737 312.586 109.76 312.763 110.328C313.684 113.286 315.858 118.25 319.873 117.119C322.995 116.241 324.192 109.973 322.726 102.74C320.18 90.1894 316.109 86.0638 311.687 86.1953C309.788 86.2508 307.343 88.7463 306.02 90.2731C305.519 90.8528 304.618 90.8528 304.116 90.2731C302.794 88.7463 300.349 86.2508 298.45 86.1953C294.028 86.0638 289.957 90.1894 287.411 102.74C285.945 109.973 287.142 116.241 290.263 117.119C294.279 118.25 296.454 113.284 297.374 110.326C297.551 109.758 298.354 109.736 298.56 110.294C299.517 112.896 301.554 117.089 304.792 117.272C304.848 117.275 305.041 117.282 305.065 117.282H305.071Z" fill="white"/>
<path fill-rule="evenodd" clip-rule="evenodd" d="M384.278 86.1923C379.059 86.1868 375.404 91.0489 373.475 96.9031C371.303 103.488 368.432 115.246 375.285 116.124C379.16 116.621 381.789 113.218 383.161 110.762C383.639 109.907 384.918 109.907 385.396 110.762C386.766 113.218 389.396 116.621 393.27 116.124C400.124 115.246 397.253 103.488 395.082 96.9031C393.152 91.0489 389.497 86.1868 384.278 86.1923Z" fill="white"/>
<path fill-rule="evenodd" clip-rule="evenodd" d="M359.904 97.4084C360.009 91.3623 355.216 86.42 349.009 86.2C344.593 86.0431 340.495 88.3091 338.455 92.2758C336.655 95.7801 336.437 99.7589 336.774 102.723C337.784 111.604 341.99 117.433 346.339 117.281C349.433 117.172 351.239 113.787 350.525 109.258C350.426 108.639 350.823 108.046 351.445 107.888C356.252 106.668 359.816 102.45 359.904 97.4084Z" fill="white"/>
<path fill-rule="evenodd" clip-rule="evenodd" d="M236.935 97.4084C237.04 91.3623 232.248 86.42 226.041 86.2C221.624 86.0431 217.527 88.3091 215.487 92.2758C213.687 95.7801 213.468 99.7589 213.806 102.723C214.816 111.604 219.022 117.433 223.37 117.281C226.464 117.172 228.27 113.787 227.556 109.258C227.458 108.639 227.855 108.046 228.476 107.888C233.283 106.668 236.848 102.45 236.935 97.4084Z" fill="white"/>
<path fill-rule="evenodd" clip-rule="evenodd" d="M260.202 86.1923C255.418 86.1868 252.067 91.0489 250.298 96.9031C248.308 103.488 245.676 115.246 251.959 116.124C255.51 116.621 257.92 113.218 259.178 110.762C259.615 109.907 260.788 109.907 261.226 110.762C262.483 113.218 264.894 116.621 268.444 116.124C274.727 115.246 272.095 103.488 270.105 96.9031C268.337 91.0489 264.986 86.1868 260.202 86.1923Z" fill="white"/>
<path fill-rule="evenodd" clip-rule="evenodd" d="M281.807 161.698C281.832 161.698 282.024 161.692 282.081 161.688C285.318 161.506 287.356 157.314 288.312 154.712C288.517 154.153 289.322 154.176 289.499 154.744C290.419 157.702 292.594 162.666 296.609 161.536C299.731 160.657 300.928 154.389 299.461 147.156C296.915 134.606 292.845 130.48 288.423 130.612C286.524 130.667 284.079 133.163 282.755 134.689C282.255 135.269 281.353 135.269 280.852 134.689C279.53 133.163 277.084 130.667 275.185 130.612C270.764 130.48 266.693 134.606 264.147 147.156C262.68 154.389 263.877 160.657 266.999 161.536C271.015 162.666 273.19 157.7 274.11 154.743C274.286 154.174 275.09 154.152 275.295 154.711C276.252 157.312 278.29 161.506 281.528 161.688C281.584 161.692 281.777 161.698 281.801 161.698H281.807Z" fill="white"/>
<path fill-rule="evenodd" clip-rule="evenodd" d="M361.014 130.609C355.795 130.603 352.139 135.465 350.21 141.319C348.038 147.905 345.167 159.662 352.021 160.541C355.895 161.038 358.524 157.634 359.896 155.178C360.374 154.323 361.653 154.323 362.131 155.178C363.502 157.634 366.132 161.038 370.006 160.541C376.86 159.662 373.988 147.905 371.817 141.319C369.888 135.465 366.232 130.603 361.014 130.609Z" fill="white"/>
<path fill-rule="evenodd" clip-rule="evenodd" d="M336.64 141.825C336.745 135.779 331.952 130.836 325.745 130.616C321.328 130.459 317.231 132.725 315.191 136.692C313.391 140.196 313.172 144.175 313.51 147.139C314.52 156.02 318.726 161.849 323.074 161.697C326.169 161.588 327.975 158.203 327.26 153.675C327.162 153.055 327.559 152.462 328.181 152.304C332.987 151.085 336.552 146.866 336.64 141.825Z" fill="white"/>
<path fill-rule="evenodd" clip-rule="evenodd" d="M213.671 141.825C213.776 135.779 208.983 130.836 202.777 130.616C198.36 130.459 194.262 132.725 192.223 136.692C190.422 140.196 190.204 144.175 190.541 147.139C191.551 156.02 195.757 161.849 200.106 161.697C203.2 161.588 205.006 158.203 204.292 153.675C204.194 153.055 204.59 152.462 205.212 152.304C210.019 151.085 213.583 146.866 213.671 141.825Z" fill="white"/>
<path fill-rule="evenodd" clip-rule="evenodd" d="M236.938 130.609C232.154 130.603 228.803 135.465 227.034 141.319C225.044 147.905 222.411 159.662 228.694 160.541C232.246 161.038 234.656 157.634 235.913 155.178C236.35 154.323 237.524 154.323 237.962 155.178C239.219 157.634 241.629 161.038 245.18 160.541C251.463 159.662 248.831 147.905 246.841 141.319C245.072 135.465 241.721 130.603 236.938 130.609Z" fill="white"/>
<path fill-rule="evenodd" clip-rule="evenodd" d="M82.3984 161.698C82.4231 161.698 82.6156 161.692 82.6725 161.688C85.9097 161.506 87.9471 157.314 88.9032 154.712C89.109 154.153 89.9134 154.176 90.0907 154.744C91.0108 157.702 93.1857 162.666 97.2007 161.536C100.322 160.657 101.519 154.389 100.053 147.156C97.507 134.606 93.4361 130.48 89.0142 130.612C87.1153 130.667 84.6701 133.163 83.3469 134.689C82.8461 135.269 81.945 135.269 81.4433 134.689C80.1211 133.163 77.6758 130.667 75.7769 130.612C71.3551 130.48 67.2841 134.606 64.7383 147.156C63.272 154.389 64.469 160.657 67.5905 161.536C71.6064 162.666 73.7813 157.7 74.7014 154.743C74.8778 154.174 75.6811 154.152 75.887 154.711C76.844 157.312 78.8814 161.506 82.1196 161.688C82.1755 161.692 82.3681 161.698 82.3927 161.698H82.3984Z" fill="white"/>
<path fill-rule="evenodd" clip-rule="evenodd" d="M161.605 130.609C156.387 130.603 152.731 135.465 150.802 141.319C148.63 147.905 145.759 159.662 152.612 160.541C156.487 161.038 159.116 157.634 160.488 155.178C160.966 154.323 162.245 154.323 162.723 155.178C164.094 157.634 166.724 161.038 170.597 160.541C177.452 159.662 174.58 147.905 172.409 141.319C170.48 135.465 166.824 130.603 161.605 130.609Z" fill="white"/>
<path fill-rule="evenodd" clip-rule="evenodd" d="M137.231 141.825C137.336 135.779 132.543 130.836 126.337 130.616C121.92 130.459 117.822 132.725 115.783 136.692C113.982 140.196 113.764 144.175 114.101 147.139C115.111 156.02 119.317 161.849 123.666 161.697C126.76 161.588 128.566 158.203 127.852 153.675C127.754 153.055 128.15 152.462 128.772 152.304C133.579 151.085 137.143 146.866 137.231 141.825Z" fill="white"/>
<path fill-rule="evenodd" clip-rule="evenodd" d="M14.2626 141.825C14.3675 135.779 9.5749 130.836 3.36813 130.616C-1.04879 130.459 -5.14626 132.725 -7.18594 136.692C-8.98627 140.196 -9.20464 144.175 -8.86708 147.139C-7.85725 156.02 -3.65107 161.849 0.697194 161.697C3.79152 161.588 5.59757 158.203 4.88335 153.675C4.78513 153.055 5.18182 152.462 5.80354 152.304C10.6105 151.085 14.1749 146.866 14.2626 141.825Z" fill="white"/>
<path fill-rule="evenodd" clip-rule="evenodd" d="M37.5291 130.609C32.7454 130.603 29.3944 135.465 27.6252 141.319C25.6351 147.905 23.0027 159.662 29.2858 160.541C32.8374 161.038 35.2472 157.634 36.5047 155.178C36.942 154.323 38.1153 154.323 38.5535 155.178C39.8101 157.634 42.2208 161.038 45.7716 160.541C52.0546 159.662 49.4222 147.905 47.4321 141.319C45.6638 135.465 42.3128 130.603 37.5291 130.609Z" fill="white"/>
<path fill-rule="evenodd" clip-rule="evenodd" d="M105.663 203.474C105.687 203.474 105.88 203.468 105.937 203.464C109.174 203.282 111.211 199.09 112.167 196.488C112.373 195.929 113.178 195.952 113.355 196.52C114.275 199.478 116.45 204.442 120.465 203.312C123.586 202.433 124.783 196.165 123.317 188.932C120.771 176.382 116.7 172.256 112.278 172.388C110.38 172.443 107.934 174.939 106.611 176.465C106.11 177.045 105.209 177.045 104.708 176.465C103.385 174.939 100.94 172.443 99.0412 172.388C94.6193 172.256 90.5484 176.382 88.0026 188.932C86.5362 196.165 87.7332 202.433 90.8547 203.312C94.8707 204.442 97.0456 199.476 97.9656 196.519C98.1421 195.95 98.9454 195.929 99.1513 196.487C100.108 199.088 102.146 203.282 105.384 203.464C105.44 203.468 105.632 203.474 105.657 203.474H105.663Z" fill="white"/>
<path fill-rule="evenodd" clip-rule="evenodd" d="M184.87 172.385C179.651 172.379 175.995 177.241 174.066 183.095C171.894 189.681 169.023 201.438 175.877 202.317C179.751 202.814 182.38 199.41 183.752 196.954C184.23 196.099 185.509 196.099 185.987 196.954C187.358 199.41 189.988 202.814 193.862 202.317C200.716 201.438 197.844 189.681 195.673 183.095C193.744 177.241 190.088 172.379 184.87 172.385Z" fill="white"/>
<path fill-rule="evenodd" clip-rule="evenodd" d="M160.496 183.601C160.6 177.555 155.808 172.612 149.601 172.392C145.184 172.235 141.087 174.501 139.047 178.468C137.247 181.972 137.028 185.951 137.366 188.915C138.376 197.796 142.582 203.625 146.93 203.473C150.024 203.364 151.83 199.979 151.116 195.451C151.018 194.831 151.415 194.238 152.036 194.08C156.843 192.861 160.408 188.642 160.496 183.601Z" fill="white"/>
<path fill-rule="evenodd" clip-rule="evenodd" d="M37.5269 183.601C37.6318 177.555 32.8392 172.612 26.6324 172.392C22.2155 172.235 18.118 174.501 16.0783 178.468C14.278 181.972 14.0596 185.951 14.3972 188.915C15.407 197.796 19.6132 203.625 23.9615 203.473C27.0558 203.364 28.8619 199.979 28.1476 195.451C28.0494 194.831 28.4461 194.238 29.0678 194.08C33.8748 192.861 37.4392 188.642 37.5269 183.601Z" fill="white"/>
<path fill-rule="evenodd" clip-rule="evenodd" d="M60.7934 172.385C56.0097 172.379 52.6587 177.241 50.8895 183.095C48.8994 189.681 46.267 201.438 52.5501 202.317C56.1017 202.814 58.5115 199.41 59.769 196.954C60.2063 196.099 61.3796 196.099 61.8178 196.954C63.0744 199.41 65.4851 202.814 69.0358 202.317C75.3189 201.438 72.6865 189.681 70.6964 183.095C68.9281 177.241 65.5771 172.379 60.7934 172.385Z" fill="white"/>
<path fill-rule="evenodd" clip-rule="evenodd" d="M305.071 203.474C305.096 203.474 305.288 203.468 305.345 203.464C308.583 203.282 310.62 199.09 311.576 196.488C311.782 195.929 312.586 195.952 312.763 196.52C313.684 199.478 315.858 204.442 319.873 203.312C322.995 202.433 324.192 196.165 322.726 188.932C320.18 176.382 316.109 172.256 311.687 172.388C309.788 172.443 307.343 174.939 306.02 176.465C305.519 177.045 304.618 177.045 304.116 176.465C302.794 174.939 300.349 172.443 298.45 172.388C294.028 172.256 289.957 176.382 287.411 188.932C285.945 196.165 287.142 202.433 290.263 203.312C294.279 204.442 296.454 199.476 297.374 196.519C297.551 195.95 298.354 195.929 298.56 196.487C299.517 199.088 301.554 203.282 304.792 203.464C304.848 203.468 305.041 203.474 305.065 203.474H305.071Z" fill="white"/>
<path fill-rule="evenodd" clip-rule="evenodd" d="M384.278 172.385C379.059 172.379 375.404 177.241 373.475 183.095C371.303 189.681 368.432 201.438 375.285 202.317C379.16 202.814 381.789 199.41 383.161 196.954C383.639 196.099 384.918 196.099 385.396 196.954C386.766 199.41 389.396 202.814 393.27 202.317C400.124 201.438 397.253 189.681 395.082 183.095C393.152 177.241 389.497 172.379 384.278 172.385Z" fill="white"/>
<path fill-rule="evenodd" clip-rule="evenodd" d="M359.904 183.601C360.009 177.555 355.216 172.612 349.009 172.392C344.593 172.235 340.495 174.501 338.455 178.468C336.655 181.972 336.437 185.951 336.774 188.915C337.784 197.796 341.99 203.625 346.339 203.473C349.433 203.364 351.239 199.979 350.525 195.451C350.426 194.831 350.823 194.238 351.445 194.08C356.252 192.861 359.816 188.642 359.904 183.601Z" fill="white"/>
<path fill-rule="evenodd" clip-rule="evenodd" d="M236.935 183.601C237.04 177.555 232.248 172.612 226.041 172.392C221.624 172.235 217.527 174.501 215.487 178.468C213.687 181.972 213.468 185.951 213.806 188.915C214.816 197.796 219.022 203.625 223.37 203.473C226.464 203.364 228.27 199.979 227.556 195.451C227.458 194.831 227.855 194.238 228.476 194.08C233.283 192.861 236.848 188.642 236.935 183.601Z" fill="white"/>
<path fill-rule="evenodd" clip-rule="evenodd" d="M260.202 172.385C255.418 172.379 252.067 177.241 250.298 183.095C248.308 189.681 245.676 201.438 251.959 202.317C255.51 202.814 257.92 199.41 259.178 196.954C259.615 196.099 260.788 196.099 261.226 196.954C262.483 199.41 264.894 202.814 268.444 202.317C274.727 201.438 272.095 189.681 270.105 183.095C268.337 177.241 264.986 172.379 260.202 172.385Z" fill="white"/>
<path fill-rule="evenodd" clip-rule="evenodd" d="M281.807 247.89C281.832 247.89 282.024 247.884 282.081 247.88C285.318 247.698 287.356 243.506 288.312 240.905C288.517 240.346 289.322 240.368 289.499 240.937C290.419 243.894 292.594 248.858 296.609 247.728C299.731 246.849 300.928 240.582 299.461 233.349C296.915 220.798 292.845 216.672 288.423 216.804C286.524 216.859 284.079 219.355 282.755 220.882C282.255 221.461 281.353 221.461 280.852 220.882C279.53 219.355 277.084 216.859 275.185 216.804C270.764 216.672 266.693 220.798 264.147 233.349C262.68 240.582 263.877 246.849 266.999 247.728C271.015 248.858 273.19 243.893 274.11 240.935C274.286 240.366 275.09 240.345 275.295 240.903C276.252 243.505 278.29 247.698 281.528 247.88C281.584 247.884 281.777 247.89 281.801 247.89H281.807Z" fill="white"/>
<path fill-rule="evenodd" clip-rule="evenodd" d="M361.014 216.801C355.795 216.795 352.139 221.657 350.21 227.512C348.038 234.097 345.167 245.855 352.021 246.733C355.895 247.23 358.524 243.826 359.896 241.37C360.374 240.516 361.653 240.516 362.131 241.37C363.502 243.826 366.132 247.23 370.006 246.733C376.86 245.855 373.988 234.097 371.817 227.512C369.888 221.657 366.232 216.795 361.014 216.801Z" fill="white"/>
<path fill-rule="evenodd" clip-rule="evenodd" d="M336.64 228.017C336.745 221.971 331.952 217.029 325.745 216.809C321.328 216.652 317.231 218.918 315.191 222.884C313.391 226.389 313.172 230.367 313.51 233.332C314.52 242.213 318.726 248.042 323.074 247.889C326.169 247.781 327.975 244.395 327.26 239.867C327.162 239.248 327.559 238.655 328.181 238.497C332.987 237.277 336.552 233.059 336.64 228.017Z" fill="white"/>
<path fill-rule="evenodd" clip-rule="evenodd" d="M213.671 228.017C213.776 221.971 208.983 217.029 202.777 216.809C198.36 216.652 194.262 218.918 192.223 222.884C190.422 226.389 190.204 230.367 190.541 233.332C191.551 242.213 195.757 248.042 200.106 247.889C203.2 247.781 205.006 244.395 204.292 239.867C204.194 239.248 204.59 238.655 205.212 238.497C210.019 237.277 213.583 233.059 213.671 228.017Z" fill="white"/>
<path fill-rule="evenodd" clip-rule="evenodd" d="M236.938 216.801C232.154 216.795 228.803 221.657 227.034 227.512C225.044 234.097 222.411 245.855 228.694 246.733C232.246 247.23 234.656 243.826 235.913 241.37C236.35 240.516 237.524 240.516 237.962 241.37C239.219 243.826 241.629 247.23 245.18 246.733C251.463 245.855 248.831 234.097 246.841 227.512C245.072 221.657 241.721 216.795 236.938 216.801Z" fill="white"/>
<path fill-rule="evenodd" clip-rule="evenodd" d="M82.3984 247.89C82.4231 247.89 82.6156 247.884 82.6725 247.88C85.9097 247.698 87.9471 243.506 88.9032 240.905C89.109 240.346 89.9134 240.368 90.0907 240.937C91.0108 243.894 93.1857 248.858 97.2007 247.728C100.322 246.849 101.519 240.582 100.053 233.349C97.507 220.798 93.4361 216.672 89.0142 216.804C87.1153 216.859 84.6701 219.355 83.3469 220.882C82.8461 221.461 81.945 221.461 81.4433 220.882C80.1211 219.355 77.6758 216.859 75.7769 216.804C71.3551 216.672 67.2841 220.798 64.7383 233.349C63.272 240.582 64.469 246.849 67.5905 247.728C71.6064 248.858 73.7813 243.893 74.7014 240.935C74.8778 240.366 75.6811 240.345 75.887 240.903C76.844 243.505 78.8814 247.698 82.1196 247.88C82.1755 247.884 82.3681 247.89 82.3927 247.89H82.3984Z" fill="white"/>
<path fill-rule="evenodd" clip-rule="evenodd" d="M161.605 216.801C156.387 216.795 152.731 221.657 150.802 227.512C148.63 234.097 145.759 245.855 152.612 246.733C156.487 247.23 159.116 243.826 160.488 241.37C160.966 240.516 162.245 240.516 162.723 241.37C164.094 243.826 166.724 247.23 170.597 246.733C177.452 245.855 174.58 234.097 172.409 227.512C170.48 221.657 166.824 216.795 161.605 216.801Z" fill="white"/>
<path fill-rule="evenodd" clip-rule="evenodd" d="M137.231 228.017C137.336 221.971 132.543 217.029 126.337 216.809C121.92 216.652 117.822 218.918 115.783 222.884C113.982 226.389 113.764 230.367 114.101 233.332C115.111 242.213 119.317 248.042 123.666 247.889C126.76 247.781 128.566 244.395 127.852 239.867C127.754 239.248 128.15 238.655 128.772 238.497C133.579 237.277 137.143 233.059 137.231 228.017Z" fill="white"/>
<path fill-rule="evenodd" clip-rule="evenodd" d="M14.2626 228.017C14.3675 221.971 9.5749 217.029 3.36813 216.809C-1.04879 216.652 -5.14626 218.918 -7.18594 222.884C-8.98627 226.389 -9.20464 230.367 -8.86708 233.332C-7.85725 242.213 -3.65107 248.042 0.697194 247.889C3.79152 247.781 5.59757 244.395 4.88335 239.867C4.78513 239.248 5.18182 238.655 5.80354 238.497C10.6105 237.277 14.1749 233.059 14.2626 228.017Z" fill="white"/>
<path fill-rule="evenodd" clip-rule="evenodd" d="M37.5291 216.801C32.7454 216.795 29.3944 221.657 27.6252 227.512C25.6351 234.097 23.0027 245.855 29.2858 246.733C32.8374 247.23 35.2472 243.826 36.5047 241.37C36.942 240.516 38.1153 240.516 38.5535 241.37C39.8101 243.826 42.2208 247.23 45.7716 246.733C52.0546 245.855 49.4222 234.097 47.4321 227.512C45.6638 221.657 42.3128 216.795 37.5291 216.801Z" fill="white"/>
<path fill-rule="evenodd" clip-rule="evenodd" d="M281.774 74.8723C281.799 74.8723 281.991 74.8656 282.048 74.8619C285.285 74.6781 287.323 70.4528 288.279 67.8301C288.485 67.2666 289.289 67.2893 289.466 67.8623C290.386 70.844 292.561 75.8479 296.576 74.7084C299.698 73.8228 300.895 67.5043 299.429 60.2131C296.883 47.5609 292.812 43.4019 288.39 43.5345C286.491 43.5904 284.046 46.1061 282.722 47.6452C282.222 48.2296 281.32 48.2296 280.819 47.6452C279.496 46.1061 277.051 43.5904 275.152 43.5345C270.73 43.4019 266.659 47.5609 264.114 60.2131C262.647 67.5043 263.844 73.8228 266.966 74.7084C270.982 75.8479 273.157 70.8421 274.077 67.8604C274.253 67.2874 275.057 67.2656 275.262 67.8282C276.219 70.4509 278.257 74.6781 281.495 74.8619C281.551 74.8656 281.744 74.8723 281.768 74.8723H281.774Z" fill="white"/>
<path fill-rule="evenodd" clip-rule="evenodd" d="M360.982 43.5315C355.763 43.526 352.107 48.4273 350.178 54.3288C348.006 60.9673 345.135 72.82 351.989 73.7055C355.864 74.2066 358.492 70.7754 359.864 68.2995C360.342 67.4378 361.621 67.4378 362.099 68.2995C363.47 70.7754 366.1 74.2066 369.974 73.7055C376.828 72.82 373.957 60.9673 371.786 54.3288C369.856 48.4273 366.201 43.526 360.982 43.5315Z" fill="white"/>
<path fill-rule="evenodd" clip-rule="evenodd" d="M336.607 54.8382C336.712 48.7432 331.92 43.761 325.713 43.5392C321.296 43.381 317.198 45.6653 315.159 49.6641C313.358 53.1968 313.14 57.2077 313.477 60.1957C314.487 69.1487 318.693 75.0247 323.042 74.8712C326.136 74.7617 327.942 71.3488 327.228 66.7839C327.13 66.1597 327.526 65.5617 328.148 65.4026C332.955 64.173 336.52 59.9206 336.607 54.8382Z" fill="white"/>
<path fill-rule="evenodd" clip-rule="evenodd" d="M213.637 54.8382C213.742 48.7432 208.949 43.761 202.742 43.5392C198.325 43.381 194.228 45.6653 192.188 49.6641C190.388 53.1968 190.17 57.2077 190.507 60.1957C191.517 69.1487 195.723 75.0247 200.071 74.8712C203.166 74.7617 204.972 71.3488 204.258 66.7839C204.159 66.1597 204.556 65.5617 205.178 65.4026C209.985 64.173 213.549 59.9206 213.637 54.8382Z" fill="white"/>
<path fill-rule="evenodd" clip-rule="evenodd" d="M236.904 43.5315C232.12 43.526 228.769 48.4273 227 54.3288C225.01 60.9673 222.377 72.82 228.66 73.7055C232.212 74.2066 234.622 70.7754 235.88 68.2995C236.317 67.4378 237.49 67.4378 237.928 68.2995C239.185 70.7754 241.596 74.2066 245.146 73.7055C251.43 72.82 248.797 60.9673 246.807 54.3288C245.039 48.4273 241.688 43.526 236.904 43.5315Z" fill="white"/>
<path fill-rule="evenodd" clip-rule="evenodd" d="M82.3009 74.8723C82.3255 74.8723 82.5179 74.8656 82.5747 74.8619C85.8085 74.6781 87.8437 70.4528 88.7988 67.8301C89.0044 67.2666 89.8078 67.2893 89.985 67.8623C90.9041 70.844 93.0767 75.8479 97.0874 74.7084C100.206 73.8228 101.401 67.5043 99.9365 60.2131C97.3934 47.5609 93.3268 43.4019 88.9096 43.5345C87.0128 43.5904 84.5701 46.1061 83.2484 47.6452C82.7481 48.2296 81.848 48.2296 81.3468 47.6452C80.026 46.1061 77.5834 43.5904 75.6865 43.5345C71.2693 43.4019 67.2027 47.5609 64.6597 60.2131C63.1949 67.5043 64.3906 73.8228 67.5088 74.7084C71.5204 75.8479 73.693 70.8421 74.6121 67.8604C74.7883 67.2874 75.5908 67.2656 75.7964 67.8282C76.7524 70.4509 78.7876 74.6781 82.0223 74.8619C82.0783 74.8656 82.2706 74.8723 82.2952 74.8723H82.3009Z" fill="white"/>
<path fill-rule="evenodd" clip-rule="evenodd" d="M161.423 43.5315C156.21 43.526 152.558 48.4273 150.631 54.3288C148.462 60.9673 145.594 72.82 152.44 73.7055C156.31 74.2066 158.937 70.7754 160.307 68.2995C160.784 67.4378 162.062 67.4378 162.54 68.2995C163.909 70.7754 166.536 74.2066 170.406 73.7055C177.253 72.82 174.384 60.9673 172.215 54.3288C170.288 48.4273 166.636 43.526 161.423 43.5315Z" fill="white"/>
<path fill-rule="evenodd" clip-rule="evenodd" d="M137.075 54.8382C137.18 48.7432 132.392 43.761 126.192 43.5392C121.78 43.381 117.687 45.6653 115.65 49.6641C113.851 53.1968 113.633 57.2077 113.97 60.1957C114.979 69.1487 119.181 75.0247 123.524 74.8712C126.615 74.7617 128.419 71.3488 127.706 66.7839C127.608 66.1597 128.004 65.5617 128.625 65.4026C133.427 64.173 136.988 59.9206 137.075 54.8382Z" fill="white"/>
<path fill-rule="evenodd" clip-rule="evenodd" d="M14.2378 54.8382C14.3426 48.7432 9.55509 43.761 3.35494 43.5392C-1.05727 43.381 -5.15037 45.6653 -7.18787 49.6641C-8.98629 53.1968 -9.20442 57.2077 -8.86722 60.1957C-7.85847 69.1487 -3.65677 75.0247 0.686852 74.8712C3.77788 74.7617 5.58201 71.3488 4.86855 66.7839C4.77043 66.1597 5.16669 65.5617 5.78776 65.4026C10.5896 64.173 14.1502 59.9206 14.2378 54.8382Z" fill="white"/>
<path fill-rule="evenodd" clip-rule="evenodd" d="M37.4795 43.5315C32.7009 43.526 29.3535 48.4273 27.5861 54.3288C25.5982 60.9673 22.9686 72.82 29.2449 73.7055C32.7928 74.2066 35.2 70.7754 36.4562 68.2995C36.893 67.4378 38.0651 67.4378 38.5028 68.2995C39.7581 70.7754 42.1662 74.2066 45.7131 73.7055C51.9895 72.82 49.3599 60.9673 47.372 54.3288C45.6055 48.4273 42.2581 43.526 37.4795 43.5315Z" fill="white"/>
</svg>
