<svg width="82" height="20" viewBox="0 0 82 20" fill="none" xmlns="http://www.w3.org/2000/svg">
<path fill-rule="evenodd" clip-rule="evenodd" d="M73.9313 0.836826C70.8401 0.833111 68.6753 3.83162 67.5323 7.44064C66.2465 11.5012 64.5457 18.7502 68.6052 19.2922C70.8995 19.5987 72.4573 17.5004 73.2693 15.9859C73.5522 15.4586 74.3103 15.4586 74.5933 15.9859C75.4053 17.5004 76.9631 19.5987 79.2574 19.2922C83.3168 18.7502 81.6163 11.5012 80.3302 7.44064C79.1873 3.83162 77.0225 0.833111 73.9313 0.836826Z" fill="white"/>
<path fill-rule="evenodd" clip-rule="evenodd" d="M66.3889 7.30308C66.4513 3.64725 63.6058 0.659144 59.9197 0.525972C57.2971 0.431247 54.864 1.80123 53.6534 4.19981C52.5839 6.31831 52.4545 8.72414 52.6546 10.5161C53.2543 15.8865 55.7519 19.4106 58.3342 19.3183C60.171 19.2527 61.244 17.2057 60.8193 14.4674C60.7614 14.0934 60.9967 13.7349 61.3662 13.6392C64.2207 12.9017 66.3368 10.3516 66.3889 7.30308Z" fill="white"/>
<path fill-rule="evenodd" clip-rule="evenodd" d="M41.1302 19.3215C41.145 19.3215 41.2601 19.3178 41.2934 19.3154C43.2261 19.2063 44.4421 16.7026 45.0134 15.1484C45.1361 14.8144 45.6163 14.8276 45.722 15.1673C46.2714 16.934 47.5694 19.8993 49.9666 19.2243C51.8298 18.6995 52.5442 14.955 51.6688 10.6346C50.1493 3.1367 47.7188 0.67274 45.0797 0.750749C43.9458 0.784181 42.4862 2.27489 41.6966 3.18722C41.3972 3.53343 40.8596 3.53343 40.5602 3.18722C39.7707 2.27489 38.3111 0.784181 37.1773 0.750749C34.5381 0.67274 32.1076 3.1367 30.5882 10.6346C29.7125 14.955 30.4271 18.6995 32.2904 19.2243C34.688 19.8995 35.9861 16.9331 36.5352 15.1664C36.6409 14.8271 37.1206 14.8137 37.2431 15.1475C37.8142 16.7017 39.0304 19.2063 40.9634 19.3154C40.997 19.3178 41.1118 19.3215 41.1266 19.3215H41.1302Z" fill="white"/>
<path fill-rule="evenodd" clip-rule="evenodd" d="M21.4159 0.836826C18.3247 0.833111 16.1598 3.83162 15.0169 7.44064C13.731 11.5012 12.0303 18.7502 16.09 19.2922C18.3841 19.5987 19.9418 17.5004 20.7539 15.9859C21.0368 15.4586 21.7949 15.4586 22.0778 15.9859C22.8899 17.5004 24.4476 19.5987 26.7419 19.2922C30.8016 18.7502 29.1009 11.5012 27.8148 7.44064C26.672 3.83162 24.507 0.833111 21.4159 0.836826Z" fill="white"/>
<path fill-rule="evenodd" clip-rule="evenodd" d="M13.8733 7.30308C13.9357 3.64725 11.0902 0.659144 7.40414 0.525972C4.78157 0.431247 2.34843 1.80123 1.13786 4.19981C0.0685557 6.31831 -0.0611019 8.72414 0.139006 10.5161C0.738953 15.8865 3.23636 19.4106 5.81865 19.3183C7.6554 19.2527 8.72845 17.2057 8.30369 14.4674C8.24579 14.0934 8.48113 13.7349 8.85061 13.6392C11.7051 12.9017 13.8213 10.3516 13.8733 7.30308Z" fill="white"/>
</svg>
