<svg width="120" height="28" viewBox="0 0 120 28" fill="none" xmlns="http://www.w3.org/2000/svg">
<mask id="mask0" mask-type="alpha" maskUnits="userSpaceOnUse" x="0" y="0" width="21" height="28">
<path fill-rule="evenodd" clip-rule="evenodd" d="M0 0H20.4787V28H0V0Z" fill="white"/>
</mask>
<g mask="url(#mask0)">
<path fill-rule="evenodd" clip-rule="evenodd" d="M20.4772 10.1011C20.5697 4.6559 16.3513 0.205221 10.8869 0.00686548C6.99906 -0.134224 3.39203 1.90632 1.59741 5.47893C0.0122188 8.63435 -0.179993 12.2177 0.116658 14.8868C1.00605 22.8858 4.70835 28.1349 8.53647 27.9974C11.2594 27.8997 12.8501 24.8508 12.2204 20.7722C12.1346 20.215 12.4835 19.6811 13.0312 19.5386C17.2629 18.4401 20.4 14.6417 20.4772 10.1011Z" fill="black"/>
</g>
<path fill-rule="evenodd" clip-rule="evenodd" d="M32.1512 0.233251C27.5687 0.227718 24.3594 4.69389 22.6651 10.0694C20.7588 16.1174 18.2375 26.9147 24.2558 27.7219C27.6567 28.1784 29.966 25.0531 31.1699 22.7973C31.5893 22.0119 32.7131 22.0119 33.1325 22.7973C34.3364 25.0531 36.6457 28.1784 40.0469 27.7219C46.0652 26.9147 43.5439 16.1174 41.6374 10.0694C39.9433 4.69389 36.7337 0.227718 32.1512 0.233251Z" fill="black"/>
<mask id="mask1" mask-type="alpha" maskUnits="userSpaceOnUse" x="43" y="0" width="34" height="28">
<path fill-rule="evenodd" clip-rule="evenodd" d="M43.824 0.167725H76.1761V27.8323H43.824V0.167725Z" fill="white"/>
</mask>
<g mask="url(#mask1)">
<path fill-rule="evenodd" clip-rule="evenodd" d="M60.0027 27.8308C60.0246 27.8308 60.1952 27.8253 60.2446 27.8217C63.1097 27.6593 64.9124 23.9301 65.7593 21.6152C65.9413 21.1178 66.6532 21.1374 66.8098 21.6434C67.6242 24.2748 69.5486 28.6915 73.1023 27.6862C75.8643 26.9044 76.9234 21.3272 75.6257 14.8921C73.3731 3.72418 69.7699 0.0541943 65.8577 0.170386C64.1766 0.220182 62.0129 2.44054 60.8424 3.79943C60.3985 4.3151 59.6016 4.3151 59.1577 3.79943C57.9873 2.44054 55.8235 0.220182 54.1427 0.170386C50.2302 0.0541943 46.627 3.72418 44.3747 14.8921C43.0764 21.3272 44.1358 26.9044 46.8981 27.6862C50.4524 28.6918 52.3767 24.2735 53.1908 21.642C53.3475 21.1366 54.0586 21.1166 54.2402 21.6138C55.0869 23.9288 56.8898 27.6593 59.7555 27.8217C59.8052 27.8253 59.9755 27.8308 59.9974 27.8308H60.0027Z" fill="black"/>
</g>
<mask id="mask2" mask-type="alpha" maskUnits="userSpaceOnUse" x="76" y="0" width="21" height="28">
<path fill-rule="evenodd" clip-rule="evenodd" d="M76.1761 0H96.6549V28H76.1761V0Z" fill="white"/>
</mask>
<g mask="url(#mask2)">
<path fill-rule="evenodd" clip-rule="evenodd" d="M96.6535 10.1011C96.746 4.6559 92.5276 0.205221 87.0631 0.00686548C83.1753 -0.134224 79.5683 1.90632 77.7737 5.47893C76.1882 8.63435 75.9963 12.2177 76.2929 14.8868C77.182 22.8858 80.8846 28.1349 84.7127 27.9974C87.4356 27.8997 89.0264 24.8508 88.3967 20.7722C88.3109 20.215 88.6597 19.6811 89.2075 19.5386C93.4392 18.4401 96.5762 14.6417 96.6535 10.1011Z" fill="black"/>
</g>
<mask id="mask3" mask-type="alpha" maskUnits="userSpaceOnUse" x="96" y="0" width="24" height="28">
<path fill-rule="evenodd" clip-rule="evenodd" d="M96.6549 0.233246H120V27.7668H96.6549V0.233246Z" fill="white"/>
</mask>
<g mask="url(#mask3)">
<path fill-rule="evenodd" clip-rule="evenodd" d="M108.327 0.233251C103.745 0.227718 100.536 4.69389 98.8413 10.0694C96.935 16.1174 94.4138 26.9147 100.432 27.7219C103.833 28.1784 106.142 25.0531 107.346 22.7973C107.766 22.0119 108.889 22.0119 109.309 22.7973C110.513 25.0531 112.822 28.1784 116.223 27.7219C122.241 26.9147 119.72 16.1174 117.814 10.0694C116.119 4.69389 112.91 0.227718 108.327 0.233251Z" fill="black"/>
</g>
</svg>
