<svg width="32" height="32" viewBox="0 0 32 32" fill="none" xmlns="http://www.w3.org/2000/svg">
<path d="M28 7H4C3.44772 7 3 7.44772 3 8V24C3 24.5523 3.44772 25 4 25H28C28.5523 25 29 24.5523 29 24V8C29 7.44772 28.5523 7 28 7Z" stroke="#FF582D" stroke-width="2" stroke-linecap="round" stroke-linejoin="round"/>
<path d="M2.99927 12.1065H28.9993" stroke="#FF582D" stroke-width="2" stroke-linecap="round" stroke-linejoin="round"/>
<path d="M13.6253 18.664C13.9973 18.664 14.2953 18.762 14.5193 18.958C14.7473 19.15 14.8853 19.41 14.9333 19.738H14.4113C14.3873 19.542 14.3053 19.382 14.1653 19.258C14.0293 19.13 13.8453 19.066 13.6133 19.066C13.4173 19.066 13.2633 19.114 13.1513 19.21C13.0433 19.302 12.9893 19.428 12.9893 19.588C12.9893 19.708 13.0253 19.806 13.0973 19.882C13.1733 19.954 13.2653 20.01 13.3733 20.05C13.4853 20.086 13.6373 20.126 13.8293 20.17C14.0733 20.226 14.2693 20.284 14.4173 20.344C14.5693 20.4 14.6973 20.492 14.8013 20.62C14.9093 20.748 14.9633 20.92 14.9633 21.136C14.9633 21.404 14.8613 21.622 14.6573 21.79C14.4573 21.958 14.1893 22.042 13.8533 22.042C13.4613 22.042 13.1413 21.948 12.8933 21.76C12.6453 21.572 12.4993 21.31 12.4553 20.974H12.9833C13.0033 21.174 13.0893 21.336 13.2413 21.46C13.3973 21.584 13.6013 21.646 13.8533 21.646C14.0413 21.646 14.1873 21.598 14.2913 21.502C14.3993 21.406 14.4533 21.28 14.4533 21.124C14.4533 20.996 14.4153 20.894 14.3393 20.818C14.2633 20.742 14.1693 20.684 14.0573 20.644C13.9453 20.604 13.7913 20.562 13.5953 20.518C13.3513 20.462 13.1553 20.406 13.0073 20.35C12.8633 20.294 12.7393 20.206 12.6353 20.086C12.5353 19.962 12.4853 19.796 12.4853 19.588C12.4853 19.312 12.5873 19.09 12.7913 18.922C12.9953 18.75 13.2733 18.664 13.6253 18.664ZM18.6209 18.706V22H18.0749V21.226C17.9909 21.494 17.8409 21.7 17.6249 21.844C17.4129 21.984 17.1649 22.054 16.8809 22.054C16.5009 22.054 16.1929 21.932 15.9569 21.688C15.7209 21.44 15.6029 21.086 15.6029 20.626V18.706H16.1489V20.572C16.1489 20.9 16.2329 21.154 16.4009 21.334C16.5689 21.51 16.7969 21.598 17.0849 21.598C17.3849 21.598 17.6249 21.502 17.8049 21.31C17.9849 21.114 18.0749 20.83 18.0749 20.458V18.706H18.6209ZM21.3136 18.664C21.6056 18.664 21.8656 18.732 22.0936 18.868C22.3216 19.004 22.4996 19.2 22.6276 19.456C22.7596 19.712 22.8256 20.012 22.8256 20.356C22.8256 20.7 22.7596 21 22.6276 21.256C22.4996 21.508 22.3216 21.702 22.0936 21.838C21.8656 21.974 21.6056 22.042 21.3136 22.042C20.9936 22.042 20.7216 21.962 20.4976 21.802C20.2776 21.638 20.1256 21.424 20.0416 21.16V22H19.4956V17.56H20.0416V19.546C20.1256 19.282 20.2776 19.07 20.4976 18.91C20.7216 18.746 20.9936 18.664 21.3136 18.664ZM21.1576 19.15C20.9456 19.15 20.7536 19.2 20.5816 19.3C20.4096 19.396 20.2756 19.536 20.1796 19.72C20.0836 19.904 20.0356 20.116 20.0356 20.356C20.0356 20.596 20.0836 20.808 20.1796 20.992C20.2756 21.172 20.4096 21.312 20.5816 21.412C20.7536 21.512 20.9456 21.562 21.1576 21.562C21.4976 21.562 21.7676 21.456 21.9676 21.244C22.1716 21.028 22.2736 20.732 22.2736 20.356C22.2736 19.98 22.1716 19.686 21.9676 19.474C21.7676 19.258 21.4976 19.15 21.1576 19.15ZM26.5686 20.17C26.5686 20.286 26.5606 20.386 26.5446 20.47H23.9106C23.9226 20.846 24.0286 21.128 24.2286 21.316C24.4326 21.504 24.6806 21.598 24.9726 21.598C25.2366 21.598 25.4566 21.532 25.6326 21.4C25.8126 21.264 25.9226 21.084 25.9626 20.86H26.5446C26.5046 21.088 26.4146 21.292 26.2746 21.472C26.1386 21.652 25.9606 21.792 25.7406 21.892C25.5206 21.992 25.2726 22.042 24.9966 22.042C24.6806 22.042 24.4006 21.974 24.1566 21.838C23.9126 21.702 23.7206 21.508 23.5806 21.256C23.4446 21 23.3766 20.7 23.3766 20.356C23.3766 20.012 23.4446 19.712 23.5806 19.456C23.7206 19.2 23.9126 19.004 24.1566 18.868C24.4006 18.732 24.6806 18.664 24.9966 18.664C25.3166 18.664 25.5946 18.732 25.8306 18.868C26.0706 19.004 26.2526 19.186 26.3766 19.414C26.5046 19.642 26.5686 19.894 26.5686 20.17ZM26.0166 20.206C26.0286 19.962 25.9886 19.758 25.8966 19.594C25.8046 19.43 25.6786 19.308 25.5186 19.228C25.3586 19.148 25.1846 19.108 24.9966 19.108C24.6966 19.108 24.4446 19.202 24.2406 19.39C24.0366 19.574 23.9266 19.846 23.9106 20.206H26.0166Z" fill="#FF582D"/>
</svg>
